HIERARCHY
ROOT Hips
{
  OFFSET 0.976642 102.925 -148.961
  CHANNELS 6 Xposition Yposition Zposition Zrotation Xrotation Yrotation
  JOINT RightUpLeg
  {
    OFFSET -8.9458 -8.66707 0.101652
    CHANNELS 3 Zrotation Xrotation Yrotation
    JOINT RightLeg
    {
      OFFSET 0 -44.4227 1.3727
      CHANNELS 3 Zrotation Xrotation Yrotation
      JOINT RightFoot
      {
        OFFSET 0.253549 -42.0924 -1.46059
        CHANNELS 3 Zrotation Xrotation Yrotation
        JOINT RightToes
        {
          OFFSET 0.04 -4.41509 8.4991
          CHANNELS 3 Zrotation Xrotation Yrotation
          End Site
          {
            OFFSET -0.08 -0.137448 9.77979
          }
        }
      }
    }
  }
  JOINT Spine
  {
    OFFSET 0 11.8905 0
    CHANNELS 3 Zrotation Xrotation Yrotation
    JOINT Spine1
    {
      OFFSET 0 25.6574 0.127663
      CHANNELS 3 Zrotation Xrotation Yrotation
      JOINT HEad
      {
        OFFSET 0 8.73416 0.011341
        CHANNELS 3 Zrotation Xrotation Yrotation
        End Site
        {
          OFFSET -0.29 12.7742 2.51395
        }
      }
      JOINT LeftShoulder1
      {
        OFFSET 8.99 -0.362252 -0.22
        CHANNELS 3 Zrotation Xrotation Yrotation
        JOINT LeftArm
        {
          OFFSET 10.2827 -0.00338 0.322123
          CHANNELS 3 Zrotation Xrotation Yrotation
          JOINT LeftForeArm
          {
            OFFSET 32.7669 0.099144 -1.42434
            CHANNELS 3 Zrotation Xrotation Yrotation
            JOINT LeftHand
            {
              OFFSET 27.5643 0.085362 1.02216
              CHANNELS 3 Zrotation Xrotation Yrotation
              End Site
              {
                OFFSET 16.7443 -0.6 1.50291
              }
            }
          }
        }
      }
      JOINT RightShoulder
      {
        OFFSET -8.99 -0.362252 -0.22
        CHANNELS 3 Zrotation Xrotation Yrotation
        JOINT RightArm
        {
          OFFSET -10.2827 -0.00338 0.322123
          CHANNELS 3 Zrotation Xrotation Yrotation
          JOINT RightForeArm
          {
            OFFSET -32.8971 0.099144 -1.42434
            CHANNELS 3 Zrotation Xrotation Yrotation
            JOINT RightHand
            {
              OFFSET -27.4921 0.085362 1.02216
              CHANNELS 3 Zrotation Xrotation Yrotation
              End Site
              {
                OFFSET -16.6312 -0.6 1.50291
              }
            }
          }
        }
      }
    }
  }
  JOINT LeftUpLeg
  {
    OFFSET 8.9458 -8.66707 0.101652
    CHANNELS 3 Zrotation Xrotation Yrotation
    JOINT LeftLeg
    {
      OFFSET 0 -44.4227 1.3727
      CHANNELS 3 Zrotation Xrotation Yrotation
      JOINT LeftFoot
      {
        OFFSET -0.253549 -42.0924 -1.46059
        CHANNELS 3 Zrotation Xrotation Yrotation
        JOINT LeftToes
        {
          OFFSET -0.04 -4.41509 8.4991
          CHANNELS 3 Zrotation Xrotation Yrotation
          End Site
          {
            OFFSET 0.08 -0.047448 9.77979
          }
        }
      }
    }
  }
}
MOTION
Frames:	12
Frame Time:	0.0166667
-5.61206 101.173 45.0716 6.08456 -1.75144 7.43025 -6.2746 -23.7414 7.6811 8.99618 24.0745 -30.7929 28.2535 -3.14312 -0.446764 0.0462048 0.000533964 0.662642 -4.42477 1.54699 -1.66034 -11.5486 -3.65276 -0.14916 8.11121 4.36545 -2.62527 3.97569e-016 0 -0 -84.0013 -25.6082 -10.8209 -20.3778 14.2534 -13.4077 0.368473 9.90896 -0.00117926 6.65138 -0.050315 -3.85785 82.5051 -34.6244 5.91123 17.589 11.4342 -3.94419 -0.369625 9.91382 0.00119886 -7.97125 9.5377 7.88492 3.90768 39.3281 -10.4431 -0.886836 -16.1496 -0.0798778 -13.0379 7.79498 -2.71217 
-5.80639 101.334 47.4152 5.52726 -2.10703 6.89412 -4.97748 -22.5879 6.61737 8.52013 25.4185 -28.0036 28.2837 -4.72551 -0.0463978 0.0462048 0.000533964 0.662642 -4.41781 1.54424 -1.42312 -10.6323 -3.66067 -0.139206 7.60666 4.63276 -2.08587 9.93923e-016 -7.95139e-016 -0 -84.0614 -27.6735 -9.12158 -19.6608 14.2413 -13.356 0.368473 9.90896 -0.00117926 6.43648 -0.0627445 -3.94737 82.4159 -34.8156 6.03924 17.3961 11.4292 -4.1089 -0.369625 9.91382 0.00119886 -6.77243 8.75875 8.25576 3.81381 42.128 -9.11695 -1.58262 -13.3291 -0.114271 -16.0777 10.3845 -2.9506 
-6.04947 101.581 49.5958 4.95872 -2.32051 6.67551 -3.87416 -21.1487 6.8889 8.57584 25.5963 -27.4885 28.2638 -5.72423 0.20265 0.0462048 0.000533964 0.662642 -4.17563 1.61059 -1.29042 -10.1087 -3.6852 -0.132316 7.47205 4.83213 -1.91798 -4.96962e-016 7.95139e-016 -0 -83.7426 -29.3724 -7.41422 -19.0707 14.283 -13.6256 0.368473 9.90896 -0.00117926 6.69523 -0.106648 -4.23959 82.0151 -34.8697 6.04776 17.4141 11.4354 -4.04364 -0.369625 9.91382 0.00119886 -5.49005 7.22602 8.84934 4.51211 45.6093 -9.53296 -2.33897 -10.3402 -0.111284 -16.1312 11.4699 -2.63518 
-6.30606 101.851 51.6305 4.48881 -2.44784 6.61351 -3.04529 -19.6336 7.57622 8.90602 25.2652 -27.7992 28.2641 -6.52529 0.403057 0.0462048 0.000533964 0.662642 -3.835 1.69069 -1.23343 -9.87918 -3.62171 -0.117711 7.54266 4.88366 -1.89272 -7.95139e-016 0 -7.95139e-016 -83.2282 -30.8962 -5.825 -18.5725 14.3469 -14.0378 0.368473 9.90896 -0.00117926 7.08909 -0.150434 -4.52555 81.6674 -34.7887 6.10342 17.5237 11.4616 -3.79137 -0.369625 9.91382 0.00119886 -4.40486 5.17147 9.4629 5.92911 49.3621 -10.9554 -3.04618 -7.27244 -0.0752173 -14.663 11.7323 -2.06722 
-6.55985 102.077 53.4912 4.26003 -2.5207 6.59977 -2.65017 -18.299 8.38683 9.56094 24.9676 -28.2854 28.4168 -7.4295 0.633678 0.0462048 0.000533964 0.662642 -3.46809 1.74555 -1.26114 -9.99427 -3.3381 -0.0844914 7.77319 4.62496 -1.81564 6.95746e-016 0 7.95139e-016 -82.6342 -32.4657 -4.55453 -18.1403 14.3973 -14.4099 0.368473 9.90896 -0.00117926 7.3681 -0.161581 -4.58494 81.7176 -34.5309 6.35304 17.6541 11.5235 -3.30812 -0.369625 9.91382 0.00119886 -3.97646 2.67777 10.1645 8.56224 53.0373 -13.7154 -3.83023 -3.9483 0.020171 -11.8743 11.3441 -1.33645 
-6.77436 102.289 55.2333 4.14365 -2.48836 6.69759 -2.49517 -17.0869 8.96774 10.1603 24.617 -28.6996 28.6052 -8.27972 0.853461 0.0462048 0.000533964 0.662642 -3.09599 1.79507 -1.32886 -10.2285 -3.05457 -0.0516576 8.01612 4.27879 -1.84507 -2.48481e-016 -7.95139e-016 -0 -82.0423 -33.7488 -3.47207 -17.8654 14.4526 -14.8107 0.368473 9.90896 -0.00117926 7.54165 -0.157987 -4.5482 81.9521 -34.2222 6.67492 17.7735 11.5967 -2.76412 -0.369625 9.91382 0.00119886 -3.78936 -0.0670776 10.2739 11.2515 56.578 -16.0301 -3.98539 -1.35798 0.100667 -9.05941 10.4691 -0.744138 
-6.89244 102.493 56.901 4.05811 -2.26643 6.98633 -2.40147 -16.0722 8.61801 10.221 24.3619 -28.3617 28.7488 -8.99997 1.04305 0.0462048 0.000533964 0.662642 -2.77803 1.85494 -1.39407 -10.3625 -3.01606 -0.0406546 8.07481 4.02336 -2.16269 -6.4605e-016 7.95139e-016 1.59028e-015 -81.6066 -34.2934 -2.51642 -17.9032 14.538 -15.3454 0.368473 9.90896 -0.00117926 7.52285 -0.150754 -4.50398 82.2404 -33.9822 6.94331 17.8443 11.6642 -2.29933 -0.369625 9.91382 0.00119886 -3.76139 -2.88492 8.7445 11.1809 60.1007 -14.2382 -2.30776 -0.681196 0.07305 -8.15477 9.1519 -0.819497 
-6.95973 102.69 58.5004 3.9963 -1.98841 7.30956 -2.31589 -15.1061 8.13705 10.1485 24.0366 -27.9383 28.8628 -9.64777 1.21479 0.0462048 0.000533964 0.662642 -2.47255 1.89884 -1.45926 -10.4265 -3.01631 -0.0330932 8.0402 3.83006 -2.50284 4.96962e-017 -1.59028e-015 7.95139e-016 -81.2772 -34.6687 -1.71153 -18.0346 14.5978 -15.7218 0.368473 9.90896 -0.00117926 7.34951 -0.127653 -4.35732 82.6914 -33.7898 7.32439 17.8174 11.7224 -1.96157 -0.369625 9.91382 0.00119886 -3.98233 -5.76774 6.70485 9.61638 63.2812 -10.8053 -0.357301 -1.17194 0.023465 -7.56857 7.93528 -0.943271 
-6.99925 102.889 60.0461 3.91444 -1.75807 7.53463 -2.17276 -14.0682 8.23609 10.247 23.4791 -28.0255 28.9346 -10.2811 1.38119 0.0462048 0.000533964 0.662642 -2.16058 1.88806 -1.5076 -10.346 -2.9061 -0.0153276 7.95104 3.73381 -2.63696 -4.47266e-016 0 -0 -81.0317 -35.4325 -1.08962 -18.0095 14.555 -15.4961 0.368473 9.90896 -0.00117926 7.0638 -0.0772512 -4.03618 83.3224 -33.6882 7.96283 17.6227 11.7607 -1.8591 -0.369625 9.91382 0.00119886 -4.24067 -8.67059 4.99283 8.52912 65.9174 -8.47168 0.463816 -2.5818 0.015153 -6.0803 7.56034 -0.555491 
-7.0218 103.079 61.5573 3.85577 -1.57887 7.66953 -2.02192 -12.9781 8.42981 10.2941 22.8539 -28.1453 28.9709 -10.8226 1.52288 0.0462048 0.000533964 0.662642 -1.83402 1.87557 -1.55445 -10.2162 -2.75922 0.00536963 7.78381 3.72272 -2.6366 -1.59028e-015 1.59028e-015 -7.95139e-016 -80.781 -36.1675 -0.482812 -18.0847 14.5057 -15.2265 0.368473 9.90896 -0.00117926 6.56395 -0.00811609 -3.56052 84.2759 -33.5949 8.79558 17.2882 11.7834 -1.95095 -0.369625 9.91382 0.00119886 -4.648 -11.4002 3.41221 7.48253 67.8579 -6.55927 0.866484 -4.59774 0.0228559 -4.3921 7.47162 -0.0250545 
-7.05077 103.257 63.0627 3.85176 -1.51983 7.65301 -1.84446 -11.7758 8.47338 10.1523 22.2582 -28.0026 28.9625 -11.155 1.60842 0.0462048 0.000533964 0.662642 -1.45681 1.91384 -1.61333 -10.1014 -2.57784 0.0284057 7.48727 3.79512 -2.47425 -1.09332e-015 -7.95139e-016 -0 -80.4156 -36.5711 0.29665 -18.5109 14.5376 -15.4209 0.368473 9.90896 -0.00117926 5.66199 0.0825665 -2.86956 85.8636 -33.463 9.8659 16.7474 11.7881 -2.29247 -0.369625 9.91382 0.00119886 -5.21881 -13.6924 2.09851 6.95559 68.8414 -5.73322 1.03841 -6.8818 0.0416402 -2.79886 7.38123 0.467836 
-7.07143 103.413 64.5483 3.89513 -1.48769 7.55991 -1.69932 -10.569 8.3789 9.91917 21.7103 -27.6547 28.9404 -11.4564 1.68546 0.0462048 0.000533964 0.662642 -1.09316 1.96575 -1.673 -10.0198 -2.42752 0.0473973 7.17618 3.95513 -2.21815 -2.5842e-015 1.19271e-015 -7.95139e-016 -79.9996 -36.8409 1.14341 -19.0593 14.6008 -15.7848 0.368473 9.90896 -0.00117926 4.65732 0.172067 -2.13345 87.5796 -33.2257 10.991 16.2121 11.7819 -2.70267 -0.369625 9.91382 0.00119886 -5.86438 -15.7244 0.930998 6.55965 69.0141 -5.12725 1.15145 -9.26045 0.074311 -1.31406 7.22975 0.917912 
